<?xml version="1.0" encoding="utf-8"?>
<!-- Generator: Adobe Illustrator 16.0.4, SVG Export Plug-In . SVG Version: 6.00 Build 0)  -->
<!DOCTYPE svg PUBLIC "-//W3C//DTD SVG 1.1//EN" "http://www.w3.org/Graphics/SVG/1.1/DTD/svg11.dtd">
<svg version="1.1" id="Calque_1" xmlns="http://www.w3.org/2000/svg" xmlns:xlink="http://www.w3.org/1999/xlink" x="0px" y="0px"
	 width="9.78px" height="6.368px" viewBox="0 0 9.78 6.368" enable-background="new 0 0 9.78 6.368" xml:space="preserve">
<g>
	<defs>
		<rect id="SVGID_1_" width="9.78" height="6.368"/>
	</defs>
	<clipPath id="SVGID_2_">
		<use xlink:href="#SVGID_1_"  overflow="visible"/>
	</clipPath>
	<path clip-path="url(#SVGID_2_)" fill="#FFFFFF" d="M9.552,0.413v5.728H0.228V0.445l2.213,1.828h0.001l2.387,2.072
		c0.043,0.037,0.106,0.037,0.149,0l2.387-2.072h0.001L9.552,0.413z M0.321,0.228h9.098L7.218,2.1L7.217,2.101L4.904,4.109
		L2.59,2.101C2.59,2.1,2.589,2.1,2.588,2.099L0.321,0.228z M0.114,0C0.051,0,0,0.051,0,0.114v6.14c0,0.063,0.051,0.114,0.114,0.114
		h9.552c0.063,0,0.114-0.051,0.114-0.114v-6.14C9.78,0.051,9.729,0,9.666,0H0.114z"/>
</g>
</svg>
