<?xml version="1.0" encoding="utf-8"?>
<!-- Generator: Adobe Illustrator 16.0.4, SVG Export Plug-In . SVG Version: 6.00 Build 0)  -->
<!DOCTYPE svg PUBLIC "-//W3C//DTD SVG 1.1//EN" "http://www.w3.org/Graphics/SVG/1.1/DTD/svg11.dtd">
<svg version="1.1" id="Calque_1" xmlns="http://www.w3.org/2000/svg" xmlns:xlink="http://www.w3.org/1999/xlink" x="0px" y="0px"
	 width="173.799px" height="76.917px" viewBox="0 0 173.799 76.917" enable-background="new 0 0 173.799 76.917"
	 xml:space="preserve">
<rect width="173.799" height="76.917"/>
<path fill="#FFFFFF" d="M110.193,26.766h-3.023l1.504-3.571L110.193,26.766z M114.406,30.24l-5.497-11.399h-0.22l-5.592,11.399
	h2.601l0.688-1.629h4.59l0.688,1.629H114.406z M98.962,30.24l-4.433-5.652l4.041-5.371h-3.116l-3.649,4.886h-0.031v-4.886h-2.629
	V30.24h2.629v-4.996h0.031l3.885,4.996H98.962z M82.313,19.217h-2.629V30.24h2.629V19.217z M73.763,30.242l-2.302-11.401h-0.22
	l-3.946,7.283l-4.214-7.283h-0.156l-2.303,11.401h2.35l0.955-5.184l3.211,5.558h0.157l3.007-5.448l1.002,5.074H73.763z"/>
<g>
	<defs>
		<rect id="SVGID_1_" width="173.799" height="76.917"/>
	</defs>
	<clipPath id="SVGID_2_">
		<use xlink:href="#SVGID_1_"  overflow="visible"/>
	</clipPath>
	<path clip-path="url(#SVGID_2_)" fill="#FFFFFF" d="M135.834,57.539h9.644v-0.846h-8.681v-4.879h7.484V50.97h-7.484v-8.54h8.352
		v-0.844h-9.314V57.539z M125.09,57.727h0.281V41.586h-0.892v12.902c0,0.47,0.071,1.197,0.071,1.197s-0.424-0.657-0.729-1.056
		l-10.205-13.232h-0.281v16.142h0.892V44.635c0-0.469-0.071-1.196-0.071-1.196s0.424,0.657,0.729,1.057L125.09,57.727z
		 M101.816,57.539h0.963V41.586h-0.963V57.539z M86.028,57.727c2.769,0,5.115-1.149,6.522-3.19l-0.728-0.517
		c-1.267,1.807-3.33,2.839-5.794,2.839c-4.105,0-7.179-3.121-7.179-7.297s3.074-7.296,7.179-7.296c2.534,0,4.433,1.032,5.607,2.698
		l0.729-0.54c-1.338-1.947-3.543-3.026-6.335-3.026c-4.504,0-8.164,3.309-8.164,8.164C77.864,54.419,81.523,57.727,86.028,57.727
		 M64.749,57.727c2.745,0,4.716-1.596,4.716-4.083c0-2.205-1.243-3.565-3.824-4.739l-1.478-0.68
		c-1.971-0.915-2.768-1.688-2.768-3.285c0-1.618,1.102-2.698,2.979-2.698c1.76,0,2.675,0.893,3.332,1.948l0.75-0.493
		c-0.75-1.195-1.947-2.299-4.082-2.299c-2.158,0-3.918,1.361-3.918,3.566c0,2.018,1.103,3.073,3.332,4.105l1.478,0.681
		c2.228,1.031,3.261,2.041,3.261,3.894c0,2.019-1.713,3.238-3.801,3.238c-2.557,0-3.754-1.337-4.505-2.745l-0.821,0.399
		C60.175,56.131,61.723,57.727,64.749,57.727 M49.43,57.539h0.962V41.586H49.43V57.539z M31.154,52.589V42.43h2.205
		c4.012,0,5.42,2.252,5.42,5.091c0,2.816-1.408,5.068-5.42,5.068H31.154z M30.191,57.539h0.962v-4.106h2.299
		c4.317,0,6.311-2.557,6.311-5.912c0-3.472-1.994-5.935-6.311-5.935h-3.261V57.539z"/>
</g>
</svg>
